<?xml version="1.0" encoding="utf-8"?>
<!-- Generator: Adobe Illustrator 16.0.0, SVG Export Plug-In . SVG Version: 6.00 Build 0)  -->
<!DOCTYPE svg PUBLIC "-//W3C//DTD SVG 1.1//EN" "http://www.w3.org/Graphics/SVG/1.1/DTD/svg11.dtd">
<svg version="1.1" id="Layer_1" xmlns="http://www.w3.org/2000/svg" xmlns:xlink="http://www.w3.org/1999/xlink" x="0px" y="0px"
	 width="500px" height="500px" viewBox="0 0 500 500" enable-background="new 0 0 500 500" xml:space="preserve">
<path opacity="0.2" fill="#2D3C41" d="M250,126.003c-68.486,0-124,55.514-124,123.998c0,68.482,55.514,123.996,124,123.996
	c68.482,0,123.996-55.514,123.996-123.996C373.996,181.517,318.482,126.003,250,126.003z M250,337.563
	c-48.284,0-87.562-39.282-87.562-87.562c0-48.285,39.279-87.564,87.562-87.564c48.287,0,87.562,39.279,87.562,87.564
	C337.562,298.281,298.287,337.563,250,337.563z M249.997,189.034c-33.671,0-60.969,27.292-60.969,60.961
	c0,33.68,27.298,60.968,60.969,60.968c33.67,0,60.972-27.288,60.972-60.968C310.969,216.325,283.667,189.034,249.997,189.034z
	 M249.997,214.771c-19.15,0-34.739,15.594-34.739,34.747c0,4.308,0.781,8.513,2.311,12.492c1.415,3.676-0.415,7.806-4.091,9.221
	c-0.835,0.324-1.708,0.478-2.559,0.478c-2.865,0-5.573-1.734-6.663-4.568c-2.167-5.628-3.267-11.548-3.267-17.622
	c0-27.026,21.987-49.009,49.008-49.009c3.941,0,7.134,3.195,7.134,7.137C257.131,211.578,253.938,214.771,249.997,214.771z
	 M468.664,363.284h21.388v65.819h-69.164v-21.388h47.776V363.284z M490.052,70.897v59.013h-21.388V92.283h-47.776V70.897H490.052z
	 M9.948,70.897h63.056v21.386H31.335v37.626H9.948V70.897z M31.335,407.716h41.666v21.388H9.948v-65.819h21.387V407.716z"/>
</svg>
